<svg xmlns="http://www.w3.org/2000/svg" width="14" height="14" viewBox="0 0 14 14" fill="none">
<path d="M13.2999 0.710701C12.9099 0.320701 12.28 0.320701 11.89 0.710701L6.99996 5.5907L2.10994 0.700703C1.71994 0.310703 1.08997 0.310703 0.699971 0.700703C0.309971 1.0907 0.309971 1.7207 0.699971 2.1107L5.58995 7.0007L0.699971 11.8907C0.309971 12.2807 0.309971 12.9107 0.699971 13.3007C1.08997 13.6907 1.71994 13.6907 2.10994 13.3007L6.99996 8.4107L11.89 13.3007C12.28 13.6907 12.9099 13.6907 13.2999 13.3007C13.6899 12.9107 13.6899 12.2807 13.2999 11.8907L8.40996 7.0007L13.2999 2.1107C13.6799 1.7307 13.6799 1.0907 13.2999 0.710701Z" fill="white"/>
</svg>