<?xml version="1.0" encoding="UTF-8"?>
<svg width="137px" height="30px" viewBox="0 0 137 30" version="1.1" xmlns="http://www.w3.org/2000/svg" xmlns:xlink="http://www.w3.org/1999/xlink">
    <!-- Generator: Sketch 54.1 (76490) - https://sketchapp.com -->
    <title>Group 4</title>
    <desc>Created with Sketch.</desc>
    <g id="Login" stroke="none" stroke-width="1" fill="none" fill-rule="evenodd">
        <g id="Sign-In-Copy-20" transform="translate(-140.000000, -213.000000)" fill="#FFFFFF" fill-rule="nonzero">
            <g id="Group-4" transform="translate(140.000000, 213.000000)">
                <g id="Group-43">
                    <g id="Group-28">
                        <path d="M85.0071829,6.93816254 C91.1693273,6.93816254 95.8815554,12.0291519 95.8815554,18.0662544 C95.8815554,24.1033569 91.1693273,29.1943463 85.0071829,29.1943463 C78.8450384,29.1943463 74.1328103,24.1033569 74.1328103,18.0662544 C74.1328103,12.0291519 78.8450384,6.93816254 85.0071829,6.93816254 Z M85.0071829,8.56007067 C79.7512361,8.56007067 75.9452057,13.110424 75.9452057,18.0662544 C75.9452057,23.0220848 79.7512361,27.5724382 85.0071829,27.5724382 C90.2631296,27.5724382 94.06916,23.0220848 94.06916,18.0662544 C94.06916,13.110424 90.2631296,8.56007067 85.0071829,8.56007067 Z" id="Combined-Shape"></path>
                        <path d="M31.9934672,28.7438163 L30.2716916,28.7438163 L30.2716916,15.9487633 C30.2716916,11.4885159 27.1453095,8.56007067 23.3845889,8.56007067 C19.6238684,8.56007067 16.4974863,11.4885159 16.4974863,15.9487633 L16.4974863,28.7438163 L14.7757106,28.7438163 L14.7757106,15.7234982 C14.7757106,10.4522968 18.581741,6.93816254 23.3845889,6.93816254 C28.1874368,6.93816254 31.9934672,10.4522968 31.9934672,15.7234982 L31.9934672,28.7438163 Z" id="Path"></path>
                        <path d="M64.2850787,1.53180212 L64.2850787,7.38869258 L71.8971395,7.38869258 L71.8971395,9.01060071 L64.2850787,9.01060071 L64.2850787,22.7968198 C64.2850787,25.5 65.9162346,27.1219081 68.4535882,27.1219081 L71.8971395,27.1219081 L71.8971395,28.7438163 L68.8160672,28.7438163 C64.7381775,28.7438163 62.563303,26.4010601 62.563303,22.6166078 L62.563303,1.53180212 L64.2850787,1.53180212 Z" id="Path"></path>
                        <path d="M100.201481,16.5525331 L100.201481,7.71908127 L101.912002,7.71908127 L101.912002,10.0431893 C103.12334,8.17111089 104.981326,6.93816254 107.496373,6.93816254 C110.894614,6.93816254 112.978869,8.46996466 113.885066,11.1280919 L113.975686,11.1280919 C114.881884,8.46996466 116.966139,6.93816254 120.36438,6.93816254 C124.39696,6.93816254 127.659272,9.64134276 127.659272,14.5971731 L127.659272,28.7438163 L125.937496,28.7438163 L125.937496,14.5971731 C125.937496,10.5424028 123.128283,8.56007067 120.36438,8.56007067 C117.555167,8.56007067 114.791264,10.5424028 114.791264,14.5971731 L114.791264,28.7438163 L113.069489,28.7438163 L113.069489,14.5971731 C113.069489,10.5424028 110.305585,8.56007067 107.496373,8.56007067 C104.73247,8.56007067 101.923257,10.5424028 101.923257,14.5971731 L101.923257,28.7438163 L100.201481,28.7438163 L100.201481,16.5525331 Z" id="Combined-Shape"></path>
                        <polygon id="Path" points="136.147707 28.7438163 134.425931 28.7438163 134.425931 7.38869258 136.147707 7.38869258"></polygon>
                        <path d="M133.927522,1.35159011 C133.927522,0.585689046 134.516551,7.57172103e-14 135.286819,7.57172103e-14 C136.057087,7.57172103e-14 136.646116,0.585689046 136.646116,1.35159011 C136.646116,2.11749117 136.057087,2.70318021 135.286819,2.70318021 C134.516551,2.70318021 133.927522,2.11749117 133.927522,1.35159011 Z" id="Path"></path>
                        <polygon id="^" points="4.65050469 5.85896186 5.62315691 5.85896186 10.1507701 13.2716827 8.41389111 13.2716827 5.07538503 8.19107935 1.73687896 13.2716827 -1.12532206e-12 13.2716827"></polygon>
                        <path d="M39.2946086,23.8641061 L38.2253341,22.4393075 L54.1311121,11.6984822 C52.5714195,9.73963451 50.115321,8.49719405 47.2979548,8.50508454 C41.886823,8.52023929 38.0729649,13.0373933 38.0588121,18.0793282 C38.0447846,23.0766441 41.9681296,27.3490361 47.2451011,27.3342571 C52.3879123,27.3198538 56.4690891,23.1588995 56.5720558,18.3398086 C56.6026242,17.9788584 56.6056698,17.6502529 56.5811924,17.3539919 C56.556715,17.0577309 56.506003,16.6752567 56.4290561,16.2065694 L57.9553354,15.177081 C58.1470861,15.9410516 58.2601119,16.4699846 58.2944125,16.7638801 C58.3381314,17.1384725 58.3602805,17.6621121 58.3608597,18.3347988 C58.2109184,23.9571549 53.5908461,28.9227523 47.598353,28.9395353 C40.9797786,28.9580717 36.2528495,24.1971262 36.2702587,17.9951002 C36.2870417,12.0161686 40.7733294,6.91709031 47.3024637,6.89880441 C51.3719926,6.88740704 54.8095535,8.97485104 56.7238758,12.048169 L39.2946086,23.8641061 Z" id="e" transform="translate(47.315535, 17.919174) rotate(-326.000000) translate(-47.315535, -17.919174) "></path>
                    </g>
                </g>
            </g>
        </g>
    </g>
</svg>