<svg xmlns="http://www.w3.org/2000/svg" width="16" height="19" viewBox="0 0 16 19" fill="none">
<path d="M5.825 18.201C4.1083 17.717 2.7083 16.772 1.625 15.364C0.5417 13.955 0 12.334 0 10.501C0 9.55098 0.1583 8.64602 0.475 7.78802C0.7917 6.93003 1.2417 6.14203 1.825 5.42603C2.0083 5.22603 2.2333 5.12098 2.5 5.11298C2.7667 5.10498 3.0083 5.20903 3.225 5.42603C3.4083 5.60903 3.5043 5.83401 3.513 6.10101C3.521 6.36701 3.4333 6.61701 3.25 6.85101C2.85 7.36701 2.5417 7.93403 2.325 8.55103C2.1083 9.16703 2 9.81698 2 10.501C2 11.851 2.396 13.055 3.188 14.114C3.9793 15.172 5 15.892 6.25 16.276C6.4667 16.342 6.646 16.467 6.788 16.651C6.9293 16.834 7 17.034 7 17.251C7 17.584 6.8833 17.847 6.65 18.039C6.4167 18.23 6.1417 18.284 5.825 18.201ZM10.175 18.201C9.8583 18.284 9.5833 18.226 9.35 18.026C9.1167 17.826 9 17.559 9 17.226C9 17.026 9.071 16.834 9.213 16.651C9.3543 16.467 9.5333 16.342 9.75 16.276C11 15.876 12.0207 15.151 12.812 14.101C13.604 13.051 14 11.851 14 10.501C14 8.83398 13.4167 7.41698 12.25 6.25098C11.0833 5.08398 9.6667 4.50098 8 4.50098H7.925L8.325 4.901C8.5083 5.084 8.6 5.31701 8.6 5.60101C8.6 5.88401 8.5083 6.11703 8.325 6.30103C8.1417 6.48403 7.9083 6.57599 7.625 6.57599C7.3417 6.57599 7.1083 6.48403 6.925 6.30103L4.825 4.20099C4.725 4.10099 4.6543 3.99198 4.613 3.87598C4.571 3.75898 4.55 3.63398 4.55 3.50098C4.55 3.36698 4.571 3.24198 4.613 3.12598C4.6543 3.00898 4.725 2.90103 4.825 2.80103L6.925 0.700989C7.1083 0.516989 7.3417 0.426025 7.625 0.426025C7.9083 0.426025 8.1417 0.516989 8.325 0.700989C8.5083 0.883989 8.6 1.117 8.6 1.401C8.6 1.684 8.5083 1.91701 8.325 2.10101L7.925 2.50098H8C10.2333 2.50098 12.125 3.27599 13.675 4.82599C15.225 6.37599 16 8.26698 16 10.501C16 12.317 15.4583 13.934 14.375 15.351C13.2917 16.767 11.8917 17.717 10.175 18.201Z" fill="#6D6D6D"/>
</svg>