<svg xmlns="http://www.w3.org/2000/svg" width="16" height="16" viewBox="0 0 16 16" fill="none">
<mask id="mask0_24_312" style="mask-type:luminance" maskUnits="userSpaceOnUse" x="0" y="0" width="16" height="16">
<path d="M16 0H0V16H16V0Z" fill="white"/>
</mask>
<g mask="url(#mask0_24_312)">
<path d="M12.6667 5.99899L11.8334 4.16599L10.0001 3.33301L11.8334 2.49899L12.6667 0.665985L13.5001 2.49899L15.3334 3.33301L13.5001 4.16599L12.6667 5.99899ZM12.6667 15.333L11.8334 13.499L10.0001 12.666L11.8334 11.833L12.6667 9.99899L13.5001 11.833L15.3334 12.666L13.5001 13.499L12.6667 15.333ZM6.00009 13.333L4.33339 9.66599L0.666687 7.99899L4.33339 6.33301L6.00009 2.66599L7.66669 6.33301L11.3334 7.99899L7.66669 9.66599L6.00009 13.333ZM6.00009 10.099L6.66669 8.66599L8.10009 7.99899L6.66669 7.33301L6.00009 5.89899L5.33339 7.33301L3.90009 7.99899L5.33339 8.66599L6.00009 10.099Z" fill="#2C2C2C"/>
</g>
</svg>