<svg xmlns="http://www.w3.org/2000/svg" width="64" height="32" viewBox="0 0 64 32" fill="none">
<mask id="mask0_24_320" style="mask-type:luminance" maskUnits="userSpaceOnUse" x="0" y="0" width="64" height="32">
<path d="M0 8C0 3.582 3.5817 0 8 0H56C60.418 0 64 3.582 64 8V24C64 28.418 60.418 32 56 32H8C3.5817 32 0 28.418 0 24V8Z" fill="white"/>
</mask>
<g mask="url(#mask0_24_320)">
<path d="M12.6666 22V13.333L16.6666 9.36699C16.8333 9.19999 17.0304 9.103 17.2579 9.075C17.4859 9.047 17.7055 9.089 17.9166 9.2C18.1277 9.311 18.2833 9.46698 18.3833 9.66698C18.4833 9.86698 18.5055 10.072 18.4499 10.283L17.6999 13.333H21.9999C22.3555 13.333 22.6666 13.467 22.9333 13.733C23.1999 14 23.3333 14.311 23.3333 14.667V16C23.3333 16.078 23.3221 16.161 23.2999 16.25C23.2777 16.339 23.2555 16.422 23.2333 16.5L21.2333 21.2C21.1333 21.422 20.9666 21.611 20.7333 21.767C20.4999 21.922 20.2555 22 19.9999 22H12.6666ZM13.9999 13.9V20.667H19.9999L21.9999 16V14.667H15.9999L16.8999 11L13.9999 13.9ZM10.6666 22C10.2999 22 9.98611 21.87 9.72531 21.609C9.46391 21.347 9.33331 21.033 9.33331 20.667V14.667C9.33331 14.3 9.46391 13.986 9.72531 13.725C9.98611 13.464 10.2999 13.333 10.6666 13.333H12.6666V14.667H10.6666V20.667H12.6666V22H10.6666Z" fill="#6D6D6D"/>
<path d="M42.0001 18.667C41.6445 18.667 41.3334 18.533 41.0667 18.267C40.8001 18 40.6667 17.689 40.6667 17.333V16C40.6667 15.922 40.6779 15.839 40.7001 15.75C40.7223 15.661 40.7445 15.578 40.7667 15.5L42.7667 10.8C42.8667 10.578 43.0334 10.389 43.2667 10.233C43.5001 10.078 43.7445 10 44.0001 10H51.333V18.667L47.3334 22.633C47.1667 22.8 46.9696 22.897 46.7421 22.925C46.5141 22.953 46.2945 22.911 46.0834 22.8C45.8723 22.689 45.7167 22.533 45.6167 22.333C45.5167 22.133 45.4945 21.928 45.5501 21.717L46.3001 18.667H42.0001ZM50 18.1V11.333H44.0001L42.0001 16V17.333H48L47.1001 21L50 18.1ZM53.333 10C53.7 10 54.014 10.13 54.275 10.391C54.536 10.653 54.667 10.967 54.667 11.333V17.333C54.667 17.7 54.536 18.014 54.275 18.275C54.014 18.536 53.7 18.667 53.333 18.667H51.333V17.333H53.333V11.333H51.333V10H53.333Z" fill="#6D6D6D"/>
</g>
</svg>